<svg class="svg-product is-animated" version="1.1" xmlns="http://www.w3.org/2000/svg" xmlns:xlink="http://www.w3.org/1999/xlink" x="0px" y="0px" viewBox="0 0 244 243.1" style="enable-background:new 0 0 244 243.1;" xml:space="preserve" data-animation="" data-animation-options="type: packageIcon; delay: 320;" width="244"  height="243.1" >
	<g class="animation-element" data-animation-shadow="">
		<path class="svg-product__shadow" d="M122,117.5a9.07,9.07,0,0,0-4.3,1c-1.1.6-102.3,58.7-103.4,59.3a3,3,0,0,0-1.8,2.5h0a3.13,3.13,0,0,0,1.8,2.5c1.1.6,102.3,58.7,103.4,59.3a9.33,9.33,0,0,0,8.6,0c1.1-.6,102.3-58.7,103.4-59.3a3,3,0,0,0,1.8-2.5h0a3.13,3.13,0,0,0-1.8-2.5c-1.1-.6-102.3-58.7-103.4-59.3a10.43,10.43,0,0,0-4.3-1" fill="url(&quot;#svg-gradient__gray-shadow&quot;)"></path>
	</g>
	<g class="svg-product__bottom animation-element" data-animation-bottom="">
		<path class="svg-product__bottom-st1" d="M231,107.9C231,107.9,231,108.1,231,107.9c0,0.1,0,0.1,0,0.2v29c-0.1,1.1-0.8,2-1.8,2.5c-1.1,0.6-102.3,58.7-103.4,59.3c-2.7,1.4-5.9,1.4-8.6,0c-1.1-0.6-102.3-58.7-103.4-59.3c-1-0.4-1.7-1.4-1.8-2.5V108l0,0l0,0v-0.5h0.1c0.3-0.9,0.9-1.6,1.7-2c1.1-0.6,102.3-59.6,103.4-60.2c2.7-1.4,5.9-1.4,8.6,0c1.1,0.6,102.3,59.6,103.4,60.2c0.8,0.4,1.4,1.1,1.7,2h0.1V107.9z" fill="url(&quot;#svg-gradient__gray-middle&quot;)"></path>
		<path class="svg-product__bottom-st2" d="M229.2,110.1c-1.1,0.6-102.3,59.1-103.4,59.8c-2.7,1.4-5.9,1.4-8.6,0c-1.1-0.6-102.3-59.1-103.4-59.8c-1.4-0.5-2.1-2-1.7-3.3c0.3-0.8,0.9-1.4,1.7-1.7c1.1-0.6,102.3-59.1,103.4-59.8c2.7-1.4,5.9-1.4,8.6,0c1.1,0.6,102.3,59.1,103.4,59.8c1.4,0.5,2.1,2,1.6,3.3C230.6,109.1,230,109.8,229.2,110.1z M222,104.9c-1-0.6-96-55.9-97.1-56.5c-2.5-1.3-5.6-1.3-8.1,0c-1,0.6-96,55.9-97.1,56.5c-1.3,0.5-2,1.9-1.5,3.2c0.3,0.7,0.8,1.3,1.5,1.5c1,0.6,96.1,55.9,97.1,56.5c2.5,1.3,5.6,1.3,8.1,0c1-0.6,96.1-55.9,97.1-56.5c1.3-0.4,2-1.9,1.5-3.2
		C223.3,105.8,222.7,105.3,222,104.9z" fill="url(&quot;#svg-gradient__gray-top-light&quot;)"></path>
		<path class="svg-product__bottom-st3" d="M116.9,165.9c-0.8-0.4-50.8-29.5-78.8-45.7c30.3-17.5,78.3-45.2,79-45.7c2.7-1.4,5.9-1.4,8.6,0c0.8,0.4,48.1,27.8,78.5,45.4c-27.9,16.2-78.5,45.6-79.3,46C122.5,167.2,119.5,167.2,116.9,165.9z" fill="#333C5E"></path>
		<g>
			<path class="svg-product__bottom-st5" d="M25,127.8l5.3,3.2" stroke="#142149" fill="none" stroke-width="2.1386px"></path>
			<path class="svg-product__bottom-st6" d="M25,133.1l5.3,3.2" stroke="#142149" fill="none" stroke-width="2.1386px"></path>
			<path class="svg-product__bottom-st6" d="M34.6,133.1l5.3,3.2" stroke="#142149" fill="none" stroke-width="2.1386px"></path>
			<path class="svg-product__bottom-st5" d="M34.6,138.5l5.3,3.2" stroke="#142149" fill="none" stroke-width="2.1386px"></path>
		</g>
		<g>
			<path class="svg-product__bottom-st7" d="M210,132.5v7" stroke="#142149" fill="none" stroke-width="2.1386px"></path>
			<path class="svg-product__bottom-st7" d="M214,130v7" stroke="#142149" fill="none" stroke-width="2.1386px"></path>
			<path class="svg-product__bottom-st7" d="M218,127.5v7.5" stroke="#142149" fill="none" stroke-width="2.1386px"></path>
			<path class="svg-product__bottom-st7" d="M222,125.4v7" stroke="#142149" fill="none" stroke-width="2.1386px"></path>
		</g>
		<path class="svg-product__bottom-st8" d="M69.5,156.8l38.6,22.1" stroke="#142149" fill="none" stroke-width="2.1386px"></path>
	</g>
	<g class="svg-product__top animation-element" data-animation-top="">
		<g>
			<path class="svg-product__block-storage-st10" d="M73,42c0,1.5,1,3,3,4.1L95.2,57l19.2,10.9a15.89,15.89,0,0,0,14.4,0L147.9,57l19.2-10.9c2-1.1,3-2.6,3-4.1V28.6H73V42Zm59,36c0,1.5,1,3,3,4.1L154.2,93l19.2,10.9a15.89,15.89,0,0,0,14.4,0L206.9,93l19.2-10.9c2-1.1,3-2.6,3-4.1V64.6h-97L132,78ZM109,64.6H12V78c0,1.5,1,3,3,4.1l2.4,1.4,16.8,9.8L51,102.6l2.4,1.4a15.89,15.89,0,0,0,14.4,0L86.9,93l19.2-10.9c2-1.1,3-2.6,3-4.1L109,64.6Z" fill="url(&quot;#svg-gradient__dark-middle-2&quot;)"></path>
			<path class="svg-product__block-storage-st11" d="M18.9,76.8a1.12,1.12,0,0,0-1.6.1,1.61,1.61,0,0,0-.3.9v5.7l34,19.1V97.9a4.17,4.17,0,0,0-1.8-3.1Zm61-36a1.12,1.12,0,0,0-1.6.1,1.61,1.61,0,0,0-.3.9v5.7l34,19.1V61.9a4.17,4.17,0,0,0-1.8-3.1Zm59.9,35a1.12,1.12,0,0,0-1.6.1,1.61,1.61,0,0,0-.3.9v7.3l34,19.5V96.9a4.17,4.17,0,0,0-1.8-3.1Z" fill="#292E47"></path>
			<path class="svg-product__block-storage-st12" d="M226.1,68.7c2-1.1,3-2.6,3-4.1s-1-3-3-4.2L206.9,49.3,187.7,38.2a15.89,15.89,0,0,0-14.4,0L154.1,49.3,135,60.4c-2,1.1-3,2.6-3,4.2s1,3,3,4.1l19.2,11.1,19.2,11.1a15.89,15.89,0,0,0,14.4,0L207,79.8Zm-59-36c2-1.1,3-2.6,3-4.2s-1-3-3-4.2L147.9,13.2,128.7,2.3a15.89,15.89,0,0,0-14.4,0L95.2,13.4,76,24.4c-2,1.1-3,2.6-3,4.2s1,3,3,4.1L95.2,43.8l19.2,11.1a15.89,15.89,0,0,0,14.4,0L148,43.8Zm-61,36c2-1.1,3-2.6,3-4.1s-1-3-3-4.2l-19.2-11L67.7,38.3a15.89,15.89,0,0,0-14.4,0L34.2,49.4,15,60.4c-2,1.1-3,2.6-3,4.2s1,3,3,4.1L34.2,79.8,53.4,90.9a15.89,15.89,0,0,0,14.4,0L87,79.8Z" fill="url(&quot;#svg-gradient__dark-top-light&quot;)"></path>
		</g>
		<g>
			<path class="svg-product__block-storage-st13" d="M72,100.6h97V114c0,1.5-1,3-3,4.1L146.9,129l-19.2,10.9a15.89,15.89,0,0,1-14.4,0l-2.4-1.4L94.1,128.2l-16.8-8.7-2.4-1.4c-2-1.1-3-2.6-3-4.1l.1-13.4Z" fill="url(&quot;#svg-gradient__blue-middle-cls13&quot;)"></path>
			<path class="svg-product__block-storage-st14" d="M79.8,113.8a1.12,1.12,0,0,0-1.6.1,1.61,1.61,0,0,0-.3.9v5.7l34,19.1v-4.7a4.17,4.17,0,0,0-1.8-3.1Z" fill="#162F7E"></path>
			<path class="svg-product__block-storage-st15" d="M166.1,103.7c2-1.1,3-2.6,3-4.1s-1-3-3-4.2L146.9,84.3,127.7,73.2a15.89,15.89,0,0,0-14.4,0L94.2,84.4,75,95.4c-2,1.1-3,2.6-3,4.2s1,3,3,4.1l19.2,11.1,19.2,11.1a15.89,15.89,0,0,0,14.4,0L147,114.8Z" fill="url(&quot;#svg-gradient__blue-top-light-cls15&quot;)"></path>
			<path class="svg-product__block-storage-st16" d="M134.4,100.2l-2.6-1.5a3,3,0,0,0-2.6,0l-9.4,5.6a.88.88,0,0,0-.5,1,1.21,1.21,0,0,0,.5.5l2.6,1.5a10.84,10.84,0,0,0,10.2,0l1.7-1C137.2,104.6,137.2,101.9,134.4,100.2Zm-4.2,5.5a5.72,5.72,0,0,1-5.1,0l-1.3-.8,6.8-4,1.3.8a1.6,1.6,0,0,1,0,3Zm-24.8-8.6a7.42,7.42,0,0,0,6.8,0c1.4-.8,1.8-2,1.1-3-.4-.6-1.1-1.7-1.4-2.3a.57.57,0,0,1,.2-.7h.1a1.72,1.72,0,0,1,1.7,0l2.6,1.5a3,3,0,0,0,2.6,0,.88.88,0,0,0,.5-1,1.21,1.21,0,0,0-.5-.5l-2.6-1.5a7.42,7.42,0,0,0-6.8,0c-1.4.8-1.7,2-1.1,3,.4.6,1.1,1.7,1.4,2.3a.57.57,0,0,1-.2.7h-.1a1.72,1.72,0,0,1-1.7,0l-2.6-1.5a3,3,0,0,0-2.6,0,.88.88,0,0,0-.5,1,1.21,1.21,0,0,0,.5.5Zm8.5,5.1a7.42,7.42,0,0,0,6.8,0c1.4-.8,1.7-2,1.1-3-.4-.6-1.1-1.7-1.4-2.3a.57.57,0,0,1,.2-.7h.1a1.72,1.72,0,0,1,1.7,0l2.6,1.5a3,3,0,0,0,2.6,0,.83.83,0,0,0,.5-1,1.21,1.21,0,0,0-.5-.5L125,94.7a7.42,7.42,0,0,0-6.8,0c-1.4.8-1.8,2-1.1,3,.4.6,1.1,1.7,1.4,2.3a.57.57,0,0,1-.2.7h-.1a1.72,1.72,0,0,1-1.7,0l-2.6-1.5a3,3,0,0,0-2.6,0,.83.83,0,0,0-.5,1,1.21,1.21,0,0,0,.5.5Z" fill="#FFFFFF"></path>
			<path class="svg-product__block-storage-st17" d="M122.4,123.3a3.42,3.42,0,0,1-2.8,0c-.8-.4-.8-1,0-1.4a3.42,3.42,0,0,1,2.8,0C123.2,122.2,123.2,122.9,122.4,123.3Zm-42-23a3.42,3.42,0,0,1-2.8,0c-.8-.4-.8-1,0-1.4a3.42,3.42,0,0,1,2.8,0C81.2,99.2,81.2,99.9,80.4,100.3Zm83,0a3.42,3.42,0,0,1-2.8,0c-.8-.4-.8-1,0-1.4a3.42,3.42,0,0,1,2.8,0C164.2,99.2,164.2,99.9,163.4,100.3Zm-41-23a3.42,3.42,0,0,1-2.8,0c-.8-.4-.8-1,0-1.4a3.42,3.42,0,0,1,2.8,0C123.2,76.2,123.2,76.9,122.4,77.3Z" fill="#E6E6E6"></path>
		</g>
		<path class="svg-product__block-storage-st11" d="M159.7,116.5a.48.48,0,0,1-.7,0,.6.6,0,0,1-.1-.4,1.56,1.56,0,0,1,.8-1.3l5.8-3.3a.48.48,0,0,1,.7,0,.6.6,0,0,1,.1.4,1.56,1.56,0,0,1-.8,1.3Zm59.4-37a.48.48,0,0,1-.7,0,.6.6,0,0,1-.1-.4,1.56,1.56,0,0,1,.8-1.3l5.8-3.3a.48.48,0,0,1,.7,0,.6.6,0,0,1,.1.4,1.56,1.56,0,0,1-.8,1.3Z" fill="#292E47"></path>
	</g>
	<defs>
		<style>
			.svg-product__block-storage-st11 {
				isolation: isolate;
			}
			.svg-product__block-storage-st16 {
				fill: #fff;
			}
			.svg-product__block-storage-st10 {
				fill: url(#svg-gradient__dark-middle-2);
			}
			.svg-product__block-storage-st11 {
				fill: #292e47;
				opacity: 0.7;
			}
			.svg-product__block-storage-st12 {
				fill: url(#svg-gradient__dark-top-light);
			}
			.svg-product__block-storage-st13 {
				fill: url(#svg-gradient__blue-middle-cls13);
			}
			.svg-product__block-storage-st14 {
				fill: #162f7e;
			}
			.svg-product__block-storage-st15 {
				fill: url(#svg-gradient__blue-top-light-cls15);
			}
			.svg-product__block-storage-st17 {
				fill: #e6e6e6;
			}
		</style>
		<linearGradient id="svg-gradient__gray-middle" x1="0%" y1="0%" x2="100%" y2="0%">
	<stop offset="0" style="stop-color:#CAD1E0"></stop>
	<stop offset="0.46" style="stop-color:#BEC5D8"></stop>
	<stop offset="0.54" style="stop-color:#D4D9E6"></stop>
	<stop offset="1" style="stop-color:#E4E7F0"></stop>
</linearGradient>
		<linearGradient id="svg-gradient__gray-top-dark" x1="0%" y1="0%" x2="100%" y2="0%">
	<stop offset="0" style="stop-color:#99A1BE"></stop>
	<stop offset="1" style="stop-color:#B3BACF"></stop>
</linearGradient>
		<linearGradient id="svg-gradient__gray-top-light" x1="0%" y1="0%" x2="100%" y2="0%">
	<stop offset="0" style="stop-color:#EAEDF6"></stop>
	<stop offset="1" style="stop-color:#F6F8FE"></stop>
</linearGradient>
		<linearGradient id="svg-gradient__gray-shadow" x1="122.26" y1="-395.29" x2="122.26" y2="-520.94" gradientTransform="matrix(1, 0, 0, -1, 0, -278)" gradientUnits="userSpaceOnUse">
	<stop offset="0" stop-color="#13151e" stop-opacity="0"></stop>
	<stop offset="1" stop-color="#131532"></stop>
</linearGradient>
		<linearGradient id="svg-gradient__dark-top-dark" gradientUnits="userSpaceOnUse" x1="12" y1="419.9333" x2="232" y2="419.9333" gradientTransform="matrix(1 0 0 1 0 -356)">
	<stop offset="5.139655e-03" style="stop-color:#3F4B75"></stop>
	<stop offset="1" style="stop-color:#636F99"></stop>
</linearGradient>
		<linearGradient id="svg-gradient__dark-top-light" gradientUnits="userSpaceOnUse" x1="41.6969" y1="400.85" x2="200.8531" y2="400.85" gradientTransform="matrix(1 0 0 1 0 -356)">
	<stop offset="0" style="stop-color:#5B6791"></stop>
	<stop offset="1" style="stop-color:#69759F"></stop>
</linearGradient>
		<linearGradient id="svg-gradient__dark-middle" gradientUnits="userSpaceOnUse" x1="0%" y1="0%" x2="100%" y2="0%">
	<stop offset="0" stop-color="#373f6e"></stop>
	<stop offset="1" stop-color="#5a6291"></stop>
</linearGradient>
<linearGradient id="svg-gradient__dark-middle-2" gradientUnits="userSpaceOnUse" x1="0%" y1="0%" x2="100%" y2="0%">
	<stop offset="0.01" stop-color="#353d6c"></stop>
	<stop offset="1" stop-color="#575f8e"></stop>
</linearGradient>
		<linearGradient id="svg-gradient__dark-middle" gradientUnits="userSpaceOnUse" x1="0%" y1="0%" x2="100%" y2="0%">
	<stop offset="0" stop-color="#373f6e"></stop>
	<stop offset="1" stop-color="#5a6291"></stop>
</linearGradient>
<linearGradient id="svg-gradient__dark-middle-2" gradientUnits="userSpaceOnUse" x1="0%" y1="0%" x2="100%" y2="0%">
	<stop offset="0.01" stop-color="#353d6c"></stop>
	<stop offset="1" stop-color="#575f8e"></stop>
</linearGradient>
		<linearGradient id="svg-gradient__blue-middle" gradientUnits="userSpaceOnUse" x1="2.398682e-02" y1="191.1406" x2="181.9869" y2="191.1406">
	<stop offset="0" style="stop-color:#1D53DA"></stop>
	<stop offset="1" style="stop-color:#3F75FC"></stop>
</linearGradient>
<linearGradient id="svg-gradient__blue-top-dark" gradientUnits="userSpaceOnUse" x1="5.257527e-03" y1="150.01" x2="182.0152" y2="150.01">
	<stop offset="0" style="stop-color:#0B3EBF"></stop>
	<stop offset="1" style="stop-color:#2E5FDB"></stop>
</linearGradient>
<linearGradient id="svg-gradient__blue-top-light" gradientUnits="userSpaceOnUse" x1="44.2653" y1="111.2336" x2="137.7526" y2="17.7463">
	<stop offset="0" style="stop-color:#0397F6"></stop>
	<stop offset="1" style="stop-color:#00BAFF"></stop>
</linearGradient>
		<linearGradient id="svg-gradient__blue-middle-cls13" x1="72.02" y1="477.11" x2="169.12" y2="477.11" xlink:href="#svg-gradient__blue-middle"></linearGradient>
		<linearGradient id="svg-gradient__blue-top-light-cls15" x1="72" y1="455.55" x2="169.1" y2="455.55" xlink:href="#svg-gradient__blue-top-light"></linearGradient>
<linearGradient id="svg-gradient__gray-shadow" x1="122.26" y1="-395.29" x2="122.26" y2="-520.94" gradientTransform="matrix(1, 0, 0, -1, 0, -278)" gradientUnits="userSpaceOnUse">
	<stop offset="0" stop-color="#13151e" stop-opacity="0"></stop>
	<stop offset="1" stop-color="#131532"></stop>
</linearGradient><linearGradient id="svg-gradient__gray-middle" x1="0%" y1="0%" x2="100%" y2="0%">
	<stop offset="0" style="stop-color:#CAD1E0"></stop>
	<stop offset="0.46" style="stop-color:#BEC5D8"></stop>
	<stop offset="0.54" style="stop-color:#D4D9E6"></stop>
	<stop offset="1" style="stop-color:#E4E7F0"></stop>
</linearGradient><linearGradient id="svg-gradient__gray-top-light" x1="0%" y1="0%" x2="100%" y2="0%">
	<stop offset="0" style="stop-color:#EAEDF6"></stop>
	<stop offset="1" style="stop-color:#F6F8FE"></stop>
</linearGradient><linearGradient id="svg-gradient__dark-middle-2" gradientUnits="userSpaceOnUse" x1="0%" y1="0%" x2="100%" y2="0%">
	<stop offset="0.01" stop-color="#353d6c"></stop>
	<stop offset="1" stop-color="#575f8e"></stop>
</linearGradient><linearGradient id="svg-gradient__dark-top-light" gradientUnits="userSpaceOnUse" x1="41.6969" y1="400.85" x2="200.8531" y2="400.85" gradientTransform="matrix(1 0 0 1 0 -356)">
	<stop offset="0" style="stop-color:#5B6791"></stop>
	<stop offset="1" style="stop-color:#69759F"></stop>
</linearGradient><linearGradient id="svg-gradient__blue-middle-cls13" x1="72.02" y1="477.11" x2="169.12" y2="477.11" xlink:href="#svg-gradient__blue-middle"></linearGradient><linearGradient id="svg-gradient__blue-top-light-cls15" x1="72" y1="455.55" x2="169.1" y2="455.55" xlink:href="#svg-gradient__blue-top-light"></linearGradient></defs></svg>