<svg class="svg-product is-animated" version="1.1" xmlns="http://www.w3.org/2000/svg" xmlns:xlink="http://www.w3.org/1999/xlink" x="0px" y="0px" viewBox="0 0 244 243.1" style="enable-background:new 0 0 244 243.1;" xml:space="preserve" data-animation="" data-animation-options="type: packageIcon; delay: 480;" width="244"  height="243.1" >
	<g class="animation-element" data-animation-shadow="">
		<path class="svg-product__shadow" d="M122,117.5a9.07,9.07,0,0,0-4.3,1c-1.1.6-102.3,58.7-103.4,59.3a3,3,0,0,0-1.8,2.5h0a3.13,3.13,0,0,0,1.8,2.5c1.1.6,102.3,58.7,103.4,59.3a9.33,9.33,0,0,0,8.6,0c1.1-.6,102.3-58.7,103.4-59.3a3,3,0,0,0,1.8-2.5h0a3.13,3.13,0,0,0-1.8-2.5c-1.1-.6-102.3-58.7-103.4-59.3a10.43,10.43,0,0,0-4.3-1" fill="url(&quot;#svg-gradient__gray-shadow&quot;)"></path>
	</g>
	<g class="svg-product__bottom animation-element" data-animation-bottom="">
		<path class="svg-product__bottom-st1" d="M231,107.9C231,107.9,231,108.1,231,107.9c0,0.1,0,0.1,0,0.2v29c-0.1,1.1-0.8,2-1.8,2.5c-1.1,0.6-102.3,58.7-103.4,59.3c-2.7,1.4-5.9,1.4-8.6,0c-1.1-0.6-102.3-58.7-103.4-59.3c-1-0.4-1.7-1.4-1.8-2.5V108l0,0l0,0v-0.5h0.1c0.3-0.9,0.9-1.6,1.7-2c1.1-0.6,102.3-59.6,103.4-60.2c2.7-1.4,5.9-1.4,8.6,0c1.1,0.6,102.3,59.6,103.4,60.2c0.8,0.4,1.4,1.1,1.7,2h0.1V107.9z" fill="url(&quot;#svg-gradient__gray-middle&quot;)"></path>
		<path class="svg-product__bottom-st2" d="M229.2,110.1c-1.1,0.6-102.3,59.1-103.4,59.8c-2.7,1.4-5.9,1.4-8.6,0c-1.1-0.6-102.3-59.1-103.4-59.8c-1.4-0.5-2.1-2-1.7-3.3c0.3-0.8,0.9-1.4,1.7-1.7c1.1-0.6,102.3-59.1,103.4-59.8c2.7-1.4,5.9-1.4,8.6,0c1.1,0.6,102.3,59.1,103.4,59.8c1.4,0.5,2.1,2,1.6,3.3C230.6,109.1,230,109.8,229.2,110.1z M222,104.9c-1-0.6-96-55.9-97.1-56.5c-2.5-1.3-5.6-1.3-8.1,0c-1,0.6-96,55.9-97.1,56.5c-1.3,0.5-2,1.9-1.5,3.2c0.3,0.7,0.8,1.3,1.5,1.5c1,0.6,96.1,55.9,97.1,56.5c2.5,1.3,5.6,1.3,8.1,0c1-0.6,96.1-55.9,97.1-56.5c1.3-0.4,2-1.9,1.5-3.2
		C223.3,105.8,222.7,105.3,222,104.9z" fill="url(&quot;#svg-gradient__gray-top-light&quot;)"></path>
		<path class="svg-product__bottom-st3" d="M116.9,165.9c-0.8-0.4-50.8-29.5-78.8-45.7c30.3-17.5,78.3-45.2,79-45.7c2.7-1.4,5.9-1.4,8.6,0c0.8,0.4,48.1,27.8,78.5,45.4c-27.9,16.2-78.5,45.6-79.3,46C122.5,167.2,119.5,167.2,116.9,165.9z" fill="#333C5E"></path>
		<g>
			<path class="svg-product__bottom-st5" d="M25,127.8l5.3,3.2" stroke="#142149" fill="none" stroke-width="2.1386px"></path>
			<path class="svg-product__bottom-st6" d="M25,133.1l5.3,3.2" stroke="#142149" fill="none" stroke-width="2.1386px"></path>
			<path class="svg-product__bottom-st6" d="M34.6,133.1l5.3,3.2" stroke="#142149" fill="none" stroke-width="2.1386px"></path>
			<path class="svg-product__bottom-st5" d="M34.6,138.5l5.3,3.2" stroke="#142149" fill="none" stroke-width="2.1386px"></path>
		</g>
		<g>
			<path class="svg-product__bottom-st7" d="M210,132.5v7" stroke="#142149" fill="none" stroke-width="2.1386px"></path>
			<path class="svg-product__bottom-st7" d="M214,130v7" stroke="#142149" fill="none" stroke-width="2.1386px"></path>
			<path class="svg-product__bottom-st7" d="M218,127.5v7.5" stroke="#142149" fill="none" stroke-width="2.1386px"></path>
			<path class="svg-product__bottom-st7" d="M222,125.4v7" stroke="#142149" fill="none" stroke-width="2.1386px"></path>
		</g>
		<path class="svg-product__bottom-st8" d="M69.5,156.8l38.6,22.1" stroke="#142149" fill="none" stroke-width="2.1386px"></path>
	</g>
	<g class="svg-product__top animation-element" data-animation-top="">
		<g>
			<path class="svg-product__dedicated-st10" d="M231,64.3,56,36.6V66.2l112.2,64.6,59.9-34.2c2-1.1,2.9-2.6,2.9-4.1V64.3Z" fill="url(&quot;#svg-gradient__dark-middle-st10&quot;)"></path>
			<path class="svg-product__dedicated-st11" d="M169.2,100.9l9.4-5.4,50.3-29.3c1.2-.7,2-1,2.1-2.4,0-.6-.1-1.8-2.1-2.9L125.6,1A7.59,7.59,0,0,0,122-.1,5.32,5.32,0,0,0,118.2,1L65.4,31.2,56,36.6Z" fill="url(&quot;#svg-gradient__dark-top-light&quot;)"></path>
		</g>
		<g>
			<path class="svg-product__dedicated-st12" d="M18.24,59.64l38-23.14,113,64.4v29.33l-31.77,18.84Z" fill="url(&quot;#svg-gradient__dedicated-light&quot;)"></path>
			<path class="svg-product__dedicated-st13" d="M12,65V93.5c0,1.5,1,3,2.9,4.1l100.9,57.5c3.3,1.8,7.29,2.15,10.09.65l12.11-7V120.37Z" fill="url(&quot;#svg-gradient__blue-middle&quot;)"></path>
			<path class="svg-product__dedicated-st14" d="M26.4,55,15.1,61.4c-4.7,2.8-2.7,5-2.1,5.3l102.9,59.5c2.5,1.5,5.4,2.7,8.5,1.1l13.6-6.93Z" fill="url(&quot;#svg-gradient__blue-top-light&quot;)"></path>
			<path class="svg-product__dedicated-st15" d="M69.8,120.7l-7.5-4.4a6.92,6.92,0,0,1-3.1-5.4c0-2,1.4-2.8,3.1-1.8l.7.4v-.4c0-2,1.4-2.8,3.1-1.8a6.92,6.92,0,0,1,3.1,5.4v.4l.7.4a6.92,6.92,0,0,1,3.1,5.4C72.9,120.9,71.5,121.7,69.8,120.7Z" fill="#FFFFFF"></path>
		</g>
	</g>
	<defs>
		<style>
			.svg-product__dedicated-st15 {
				fill: #fff;
			}
			.svg-product__dedicated-st10 {
				fill: url(#svg-gradient__dark-middle-st10);
			}
			.svg-product__dedicated-st11 {
				fill: url(#svg-gradient__dark-top-light);
			}
			.svg-product__dedicated-st12 {
				fill-rule: evenodd;
				opacity: 0.8;
				fill: url(#svg-gradient__dedicated-light);
			}
			.svg-product__dedicated-st13 {
				fill: url(#svg-gradient__blue-middle);
			}
			.svg-product__dedicated-st14 {
				fill: url(#svg-gradient__blue-top-light);
			}
		</style>
		<linearGradient id="svg-gradient__gray-middle" x1="0%" y1="0%" x2="100%" y2="0%">
	<stop offset="0" style="stop-color:#CAD1E0"></stop>
	<stop offset="0.46" style="stop-color:#BEC5D8"></stop>
	<stop offset="0.54" style="stop-color:#D4D9E6"></stop>
	<stop offset="1" style="stop-color:#E4E7F0"></stop>
</linearGradient>
		<linearGradient id="svg-gradient__gray-top-light" x1="0%" y1="0%" x2="100%" y2="0%">
	<stop offset="0" style="stop-color:#EAEDF6"></stop>
	<stop offset="1" style="stop-color:#F6F8FE"></stop>
</linearGradient>
		<linearGradient id="svg-gradient__gray-shadow" x1="122.26" y1="-395.29" x2="122.26" y2="-520.94" gradientTransform="matrix(1, 0, 0, -1, 0, -278)" gradientUnits="userSpaceOnUse">
	<stop offset="0" stop-color="#13151e" stop-opacity="0"></stop>
	<stop offset="1" stop-color="#131532"></stop>
</linearGradient>
		<linearGradient id="svg-gradient__dark-top-light" gradientUnits="userSpaceOnUse" x1="41.6969" y1="400.85" x2="200.8531" y2="400.85" gradientTransform="matrix(1 0 0 1 0 -356)">
	<stop offset="0" style="stop-color:#5B6791"></stop>
	<stop offset="1" style="stop-color:#69759F"></stop>
</linearGradient>
		<linearGradient id="svg-gradient__dark-middle" gradientUnits="userSpaceOnUse" x1="0%" y1="0%" x2="100%" y2="0%">
	<stop offset="0" stop-color="#373f6e"></stop>
	<stop offset="1" stop-color="#5a6291"></stop>
</linearGradient>
<linearGradient id="svg-gradient__dark-middle-2" gradientUnits="userSpaceOnUse" x1="0%" y1="0%" x2="100%" y2="0%">
	<stop offset="0.01" stop-color="#353d6c"></stop>
	<stop offset="1" stop-color="#575f8e"></stop>
</linearGradient>
		<linearGradient id="svg-gradient__blue-middle" gradientUnits="userSpaceOnUse" x1="2.398682e-02" y1="191.1406" x2="181.9869" y2="191.1406">
	<stop offset="0" style="stop-color:#1D53DA"></stop>
	<stop offset="1" style="stop-color:#3F75FC"></stop>
</linearGradient>
<linearGradient id="svg-gradient__blue-top-dark" gradientUnits="userSpaceOnUse" x1="5.257527e-03" y1="150.01" x2="182.0152" y2="150.01">
	<stop offset="0" style="stop-color:#0B3EBF"></stop>
	<stop offset="1" style="stop-color:#2E5FDB"></stop>
</linearGradient>
<linearGradient id="svg-gradient__blue-top-light" gradientUnits="userSpaceOnUse" x1="44.2653" y1="111.2336" x2="137.7526" y2="17.7463">
	<stop offset="0" style="stop-color:#0397F6"></stop>
	<stop offset="1" style="stop-color:#00BAFF"></stop>
</linearGradient>
		<linearGradient id="svg-gradient__dark-middle-st10" x1="56" y1="160.3" x2="231" y2="160.3" xlink:href="#svg-gradient__dark-middle"></linearGradient>
		<linearGradient id="svg-gradient__dedicated-light" x1="102.58" y1="44.68" x2="85.78" y2="139.96" gradientUnits="userSpaceOnUse">
			<stop offset="0" stop-color="#17bdff"></stop>
			<stop offset="1" stop-color="#17bdff" stop-opacity="0"></stop>
		</linearGradient>
	<linearGradient id="svg-gradient__gray-shadow" x1="122.26" y1="-395.29" x2="122.26" y2="-520.94" gradientTransform="matrix(1, 0, 0, -1, 0, -278)" gradientUnits="userSpaceOnUse">
	<stop offset="0" stop-color="#13151e" stop-opacity="0"></stop>
	<stop offset="1" stop-color="#131532"></stop>
</linearGradient><linearGradient id="svg-gradient__gray-middle" x1="0%" y1="0%" x2="100%" y2="0%">
	<stop offset="0" style="stop-color:#CAD1E0"></stop>
	<stop offset="0.46" style="stop-color:#BEC5D8"></stop>
	<stop offset="0.54" style="stop-color:#D4D9E6"></stop>
	<stop offset="1" style="stop-color:#E4E7F0"></stop>
</linearGradient><linearGradient id="svg-gradient__gray-top-light" x1="0%" y1="0%" x2="100%" y2="0%">
	<stop offset="0" style="stop-color:#EAEDF6"></stop>
	<stop offset="1" style="stop-color:#F6F8FE"></stop>
</linearGradient><linearGradient id="svg-gradient__dark-middle-st10" x1="56" y1="160.3" x2="231" y2="160.3" xlink:href="#svg-gradient__dark-middle"></linearGradient><linearGradient id="svg-gradient__dark-top-light" gradientUnits="userSpaceOnUse" x1="41.6969" y1="400.85" x2="200.8531" y2="400.85" gradientTransform="matrix(1 0 0 1 0 -356)">
	<stop offset="0" style="stop-color:#5B6791"></stop>
	<stop offset="1" style="stop-color:#69759F"></stop>
</linearGradient><linearGradient id="svg-gradient__dedicated-light" x1="102.58" y1="44.68" x2="85.78" y2="139.96" gradientUnits="userSpaceOnUse">
			<stop offset="0" stop-color="#17bdff"></stop>
			<stop offset="1" stop-color="#17bdff" stop-opacity="0"></stop>
		</linearGradient><linearGradient id="svg-gradient__blue-middle" gradientUnits="userSpaceOnUse" x1="2.398682e-02" y1="191.1406" x2="181.9869" y2="191.1406">
	<stop offset="0" style="stop-color:#1D53DA"></stop>
	<stop offset="1" style="stop-color:#3F75FC"></stop>
</linearGradient><linearGradient id="svg-gradient__blue-top-light" gradientUnits="userSpaceOnUse" x1="44.2653" y1="111.2336" x2="137.7526" y2="17.7463">
	<stop offset="0" style="stop-color:#0397F6"></stop>
	<stop offset="1" style="stop-color:#00BAFF"></stop>
</linearGradient></defs>
</svg>