<svg xmlns:xlink="http://www.w3.org/1999/xlink" class="app-icon app-icon--centos" xmlns="http://www.w3.org/2000/svg" viewBox="0 0 56 56" width="56" height="56">
	<g>
		<path class="app-icon_shape" d="M26.59,24.27a2,2,0,0,0,2.82,0l9.87-9.87a2,2,0,0,0,0-2.83L29.41,1.71a2,2,0,0,0-2.82,0l-9.87,9.86a2,2,0,0,0,0,2.83Z" fill="#007BFC"></path>
		<path class="app-icon_shape" d="M54.29,26.59l-9.86-9.87a2,2,0,0,0-2.83,0l-9.87,9.87a2,2,0,0,0,0,2.82l9.87,9.87a2,2,0,0,0,1.41.58,2,2,0,0,0,1.42-.58l9.86-9.87A2,2,0,0,0,54.29,26.59Z" fill="#007BFC"></path>
		<path class="app-icon_shape" d="M29.41,31.73a2,2,0,0,0-2.82,0L16.72,41.6a2,2,0,0,0,0,2.83l9.87,9.86a2,2,0,0,0,2.82,0l9.87-9.86a2,2,0,0,0,0-2.83Z" fill="#007BFC"></path>
		<path class="app-icon_shape" d="M13,39.86a2,2,0,0,0,1.41-.58l9.87-9.87a2,2,0,0,0,0-2.82L14.4,16.72a2,2,0,0,0-2.83,0L1.71,26.59a2,2,0,0,0,0,2.82l9.86,9.87A2,2,0,0,0,13,39.86Z" fill="#007BFC"></path>
		<path class="app-icon_shape" d="M46.61,14.26a2,2,0,0,0,1.41.59,2.07,2.07,0,0,0,.77-.15A2,2,0,0,0,50,12.85V8a2,2,0,0,0-2-2H43.15A2,2,0,0,0,41.3,7.21a2,2,0,0,0,.44,2.18Z" fill="#007BFC"></path>
		<path class="app-icon_shape" d="M7.21,14.7a2.07,2.07,0,0,0,.77.15,2,2,0,0,0,1.41-.59l4.87-4.87a2,2,0,0,0,.44-2.18A2,2,0,0,0,12.85,6H8A2,2,0,0,0,6,8v4.87A2,2,0,0,0,7.21,14.7Z" fill="#007BFC"></path>
		<path class="app-icon_shape" d="M48.79,41.3a2,2,0,0,0-2.18.44l-4.87,4.87a2,2,0,0,0-.44,2.18A2,2,0,0,0,43.15,50H48a2,2,0,0,0,2-2V43.15A2,2,0,0,0,48.79,41.3Z" fill="#007BFC"></path>
		<path class="app-icon_shape" d="M9.39,41.74a2,2,0,0,0-2.18-.44A2,2,0,0,0,6,43.15V48a2,2,0,0,0,2,2h4.87a2,2,0,0,0,1.85-1.23,2,2,0,0,0-.44-2.18Z" fill="#007BFC"></path>
	</g>
</svg>