<svg xmlns:xlink="http://www.w3.org/1999/xlink" class="app-icon app-icon--debian" xmlns="http://www.w3.org/2000/svg" viewBox="0 0 56 56" width="56" height="56">
	<g>
		<path class="app-icon_shape" d="M47.39,7.64a18.86,18.86,0,0,0-6.91-5.48A24.67,24.67,0,0,0,36.37.72l-.1,0L34.18.27c-.5-.07-1-.12-1.53-.16L32,0A25.11,25.11,0,0,0,15.89,4.72a26,26,0,0,0-5.66,5.71,26,26,0,0,0-3.41,6.85A31.83,31.83,0,0,0,5.53,30.69,31,31,0,0,0,9,41.75,29.8,29.8,0,0,0,20.37,53.49l.37.23c.29.17.56.33.86.47l1,.48.62.29c.4.18.76.35,1.12.48l1.39.46a1.54,1.54,0,0,0,.42.07,1.35,1.35,0,0,0,.62-2.54l-1.27-.66c-.23-.12-.48-.29-.77-.48l-.62-.41-.93-.6a5.6,5.6,0,0,1-.52-.4l-.39-.31A26.93,26.93,0,0,1,11.86,30.19,26.67,26.67,0,0,1,13.62,19.7,19.56,19.56,0,0,1,16.29,15a19.19,19.19,0,0,1,4.12-3.83,17.76,17.76,0,0,1,11-3l.69.07.8.08,1.51.29.07,0a19.29,19.29,0,0,1,2.66.89,11.48,11.48,0,0,1,4.18,3.16A12.2,12.2,0,0,1,44.13,22l-.09.58c0,.23-.07.46-.12.65l-.15.56c-.06.23-.12.46-.19.67a9,9,0,0,1-1,2,8.86,8.86,0,0,1-3.08,2.82,9,9,0,0,1-3.91,1A8.28,8.28,0,0,1,32,29.6a6.12,6.12,0,0,1-2.37-2.08A6.48,6.48,0,0,1,28.81,22a4.57,4.57,0,0,1,1.07-1.85,4.82,4.82,0,0,1,2.71-1.43,4.27,4.27,0,0,1,.83-.07h.37a1.33,1.33,0,0,0,1.36-1.21A1.35,1.35,0,0,0,34.06,16l-.34-.06a10,10,0,0,0-1.39-.11,7.84,7.84,0,0,0-4.83,1.73,8.39,8.39,0,0,0-2.36,3.05,11,11,0,0,0-1,4.31,11.25,11.25,0,0,0,1.2,5,11,11,0,0,0,4,4.36,13.54,13.54,0,0,0,6.08,1.89,14.7,14.7,0,0,0,12.67-5.76,15.84,15.84,0,0,0,2-3.44c.17-.41.31-.83.44-1.24l.19-.56c.14-.43.24-.86.34-1.31l.13-.6A19.24,19.24,0,0,0,47.39,7.64Z" fill="#007BFC"></path>
	</g>
</svg>