<svg xmlns:xlink="http://www.w3.org/1999/xlink" class="app-icon app-icon--coreos" xmlns="http://www.w3.org/2000/svg" viewBox="0 0 56 56" width="56" height="56">
	<g>
		<path class="app-icon_shape" d="M29.07,14.66A1.76,1.76,0,0,0,27.25,16,50.36,50.36,0,0,0,26,27.64v.6A1.77,1.77,0,0,0,27.76,30h.61A50.91,50.91,0,0,0,40,28.76a1.78,1.78,0,0,0,1.36-1.84A13,13,0,0,0,29.07,14.66Z" fill="#007BFC"></path>
		<path class="app-icon_shape" d="M54,27.73a1.27,1.27,0,0,0,0-.34A26,26,0,0,0,28,2l-.53,0-.18,0a4.21,4.21,0,0,0-.62,0A26,26,0,1,0,54,28.19,3.55,3.55,0,0,0,54,27.73ZM51,28v.16c-.82,3.3-10.87,6.94-23.69,6.94a63.27,63.27,0,0,1-7-.38,63.54,63.54,0,0,1-.38-7c0-12.43,3.55-21.85,6.89-22.68.4,0,.79,0,1.19,0A23,23,0,0,1,51,28Z" fill="#007BFC"></path>
	</g>
</svg>