<svg xmlns:xlink="http://www.w3.org/1999/xlink" class="app-icon app-icon--ubuntu" xmlns="http://www.w3.org/2000/svg" viewBox="0 0 56 58" width="56" height="58">
	<g>
		<path class="app-icon_shape" d="M27.34,16.06a2,2,0,0,0,2.18.94,12.14,12.14,0,0,1,2.94-.37,12.46,12.46,0,0,1,11.9,8.93A2,2,0,0,0,46.26,27h7.09a2,2,0,0,0,1.94-2.35,23.25,23.25,0,0,0-4.9-10.41,2,2,0,0,0-2-.66A8.89,8.89,0,0,1,37.7,7.47a2,2,0,0,0-1.59-1.38,22.33,22.33,0,0,0-11.25,1,2,2,0,0,0-1.07,2.86Z" fill="#007BFC"></path>
		<path class="app-icon_shape" d="M53.35,31.08H46.26a2,2,0,0,0-1.9,1.42,12.46,12.46,0,0,1-11.9,8.93,12.64,12.64,0,0,1-2.94-.36,2,2,0,0,0-2.18.93l-3.55,6.14a2,2,0,0,0-.14,1.68A2,2,0,0,0,24.86,51a23.24,23.24,0,0,0,7.6,1.29A22.18,22.18,0,0,0,36.11,52a2,2,0,0,0,1.59-1.38,9,9,0,0,1,8.56-6.35,9.48,9.48,0,0,1,2.14.26,2,2,0,0,0,2-.66,23.25,23.25,0,0,0,4.9-10.41,2,2,0,0,0-1.94-2.35Z" fill="#007BFC"></path>
		<path class="app-icon_shape" d="M23.51,37.6a12.36,12.36,0,0,1,0-17.13,2,2,0,0,0,.28-2.36L20.25,12a2,2,0,0,0-3-.5,23.35,23.35,0,0,0-6.45,9.16,2,2,0,0,0,.43,2.11,8.92,8.92,0,0,1,0,12.57,2,2,0,0,0-.43,2.1,23.27,23.27,0,0,0,6.45,9.16,2,2,0,0,0,1.3.49,1.84,1.84,0,0,0,.33,0,2,2,0,0,0,1.38-1L23.79,40A2,2,0,0,0,23.51,37.6Z" fill="#007BFC"></path>
		<path class="app-icon_shape" d="M4.85,24.18A4.85,4.85,0,1,0,9.71,29,4.86,4.86,0,0,0,4.85,24.18Z" fill="#007BFC"></path>
		<circle class="app-icon_shape" cx="46" cy="53" r="5.06" fill="#007BFC"></circle>
		<circle class="app-icon_shape" cx="46" cy="5" r="5.06" fill="#007BFC"></circle>
	</g>
</svg>