<svg xmlns:xlink="http://www.w3.org/1999/xlink" class="app-icon app-icon--windows" xmlns="http://www.w3.org/2000/svg" viewBox="0 0 56 56" width="56" height="56">
	<g>
		<path class="app-icon_shape" d="M20.3,7.49l-15,2A1.49,1.49,0,0,0,4,11V24.5A1.5,1.5,0,0,0,5.5,26h15A1.5,1.5,0,0,0,22,24.5V9a1.5,1.5,0,0,0-1.7-1.49Z" fill="#007BFC"></path>
		<path class="app-icon_shape" d="M51.49,3.69a1.51,1.51,0,0,0-1.19-.35l-22,3A1.5,1.5,0,0,0,27,7.82V24.5A1.5,1.5,0,0,0,28.5,26h22A1.5,1.5,0,0,0,52,24.5V4.82A1.53,1.53,0,0,0,51.49,3.69Z" fill="#007BFC"></path>
		<path class="app-icon_shape" d="M50.5,31h-22A1.5,1.5,0,0,0,27,32.5V49.18a1.5,1.5,0,0,0,1.3,1.49l22,3,.2,0a1.49,1.49,0,0,0,1.5-1.5V32.5A1.5,1.5,0,0,0,50.5,31Z" fill="#007BFC"></path>
		<path class="app-icon_shape" d="M20.5,31H5.5A1.5,1.5,0,0,0,4,32.5V46a1.49,1.49,0,0,0,1.3,1.48l15,2h.2A1.49,1.49,0,0,0,22,48V32.5A1.5,1.5,0,0,0,20.5,31Z" fill="#007BFC"></path>
	</g>
</svg>